<?xml version="1.0" encoding="UTF-8"?>
<svg id="Layer_2" data-name="Layer 2" xmlns="http://www.w3.org/2000/svg" viewBox="0 0 549.16 537.9">
  <defs>
    <style>
      .cls-1 {
        fill: #7753f4;
      }
    </style>
  </defs>
  <g id="Layer_1-2" data-name="Layer 1">
    <path class="cls-1" d="M305.53,243.63h25.33c120.56,0,218.3-97.73,218.3-218.3,0-13.99-11.34-25.33-25.33-25.33h-192.97c-13.99,0-25.33,11.34-25.33,25.33v126.23c0,13.99-11.34,25.33-25.33,25.33h-11.26c-13.99,0-25.32-11.34-25.32-25.33V25.33c0-13.99-11.34-25.33-25.33-25.33H25.32C11.34,0,0,11.34,0,25.33v487.25c0,13.99,11.34,25.32,25.32,25.32h192.97c13.99,0,25.33-11.34,25.33-25.32v-126.24c0-13.99,11.34-25.32,25.32-25.32h11.26c13.99,0,25.33,11.34,25.33,25.32v126.24c0,13.99,11.34,25.32,25.33,25.32h192.97c13.99,0,25.33-11.34,25.33-25.32h0c0-120.57-97.73-218.3-218.3-218.3h-164.44c-13.99,0-25.33-11.34-25.33-25.32s11.34-25.33,25.33-25.33h139.11Z"/>
  </g>
</svg>