<svg width="484" height="540" viewBox="0 0 484 540" fill="none" xmlns="http://www.w3.org/2000/svg">
<path d="M440.519 0.0304317C472.569 0.0304317 484.099 16.7031 477.056 48.0989L450.771 173.729C443.728 205.779 458.469 228.854 483.461 228.854L471.276 287.829C446.284 287.829 421.276 311.544 414.872 342.955L382.822 491.021C376.418 523.071 357.83 539.089 325.78 539.089C302.177 539.089 295.074 534.644 295.008 534.602V534.585L306.553 478.183H323.863C327.712 478.183 330.906 475.612 331.561 471.779L365.527 313.459C371.292 285.258 396.939 258.334 421.931 258.334C396.939 258.334 382.837 232.048 388.602 203.208L417.444 67.9647C418.082 64.1163 416.166 61.5605 412.317 61.5604H395.006L407.191 4.51911C407.209 4.51105 416.826 0.0304647 440.519 0.0304317Z" fill="black"/>
<path d="M153.267 0C176.981 8.8858e-05 184.04 4.48716 184.04 4.48716L172.494 61.5299H155.183C151.335 61.53 148.14 64.1001 147.485 67.9328L118.645 203.177C112.88 232.018 87.2332 258.303 62.2414 258.303C87.2334 258.303 101.351 285.227 95.5703 313.429L61.6039 471.747C60.9651 475.595 62.8816 478.151 66.7301 478.151H84.0397L71.8563 534.555C71.8563 534.555 62.2419 539.042 38.5275 539.042C6.4777 539.042 -5.05268 523.025 1.98963 490.975V490.99L33.4013 342.923C40.4438 311.512 25.0658 287.798 0.0739548 287.798L12.8964 228.824C37.8882 228.824 62.2572 205.748 69.3001 173.698L96.2093 48.0669C102.629 16.6716 121.217 0 153.267 0Z" fill="black"/>
<path d="M311.96 101.199C322.212 101.199 327.338 105.686 327.338 105.686L311.96 178.123C311.96 178.123 308.75 177.484 301.707 177.484C287.607 177.484 276.715 186.458 270.935 214.659L217.725 464.003H151.709L227.994 105.047L227.977 105.032H272.852L270.935 139.653C278.632 120.426 289.523 101.199 311.96 101.199Z" fill="black"/>
</svg>
