<?xml version="1.0" encoding="UTF-8"?>
<svg id="Layer_1" data-name="Layer 1" xmlns="http://www.w3.org/2000/svg" viewBox="0 0 1920 1080">
  <defs>
    <style>
      .cls-1 {
        fill: #fff;
      }
    </style>
  </defs>
  <rect x="-61.09" y="-43.85" width="2042.18" height="1167.71"/>
  <g>
    <path class="cls-1" d="M728.12,535.39h4.61c21.93,0,39.72-17.78,39.72-39.72,0-2.54-2.06-4.61-4.61-4.61h-35.11c-2.54,0-4.61,2.06-4.61,4.61v22.97c0,2.54-2.06,4.61-4.61,4.61h-2.05c-2.54,0-4.61-2.06-4.61-4.61v-22.97c0-2.54-2.06-4.61-4.61-4.61h-35.11c-2.54,0-4.61,2.06-4.61,4.61v88.65c0,2.54,2.06,4.61,4.61,4.61h35.11c2.54,0,4.61-2.06,4.61-4.61v-22.97c0-2.54,2.06-4.61,4.61-4.61h2.05c2.54,0,4.61,2.06,4.61,4.61v22.97c0,2.54,2.06,4.61,4.61,4.61h35.11c2.54,0,4.61-2.06,4.61-4.61h0c0-21.94-17.78-39.72-39.72-39.72h-29.92c-2.55,0-4.61-2.06-4.61-4.61s2.06-4.61,4.61-4.61h25.31Z"/>
    <g>
      <path class="cls-1" d="M1229.88,567.52c0-5.01,3.61-8.8,8.8-8.8s8.8,3.61,8.8,8.8-3.61,8.8-8.8,8.8-8.8-3.61-8.8-8.8M1246.05,567.52c0-4.26-3.02-7.49-7.38-7.49s-7.38,3.07-7.38,7.49,3.02,7.49,7.38,7.49,7.38-3.07,7.38-7.49M1234.73,567.47c0-2.53,1.67-4.26,4.06-4.26,2.12,0,3.61,1.31,3.83,3.36h-1.38c-.23-1.29-1.17-2.12-2.46-2.12-1.53,0-2.62,1.24-2.62,3.02s1.13,3.09,2.73,3.09c1.22,0,2.14-.83,2.35-2.14h1.38c-.23,2.05-1.71,3.38-3.77,3.38-2.44,0-4.13-1.78-4.13-4.33"/>
      <path class="cls-1" d="M825.61,550.63h-.21c-1.51,0-2.73-1.22-2.73-2.73s1.22-2.73,2.73-2.73c4.81,0,9.39-2.05,12.6-5.63l16.18-18.05h-21.42l-18.05,21.83v-43.75h-16.92v76.73h16.92v-22.52l19.35,22.52h21.42l-17.05-19.8c-3.21-3.73-7.89-5.88-12.82-5.88"/>
      <path class="cls-1" d="M1063.44,550.63h-.21c-1.51,0-2.73-1.22-2.73-2.73s1.22-2.73,2.73-2.73c4.81,0,9.39-2.05,12.6-5.63l16.18-18.05h-21.42l-18.05,21.83v-43.75h-16.92v76.73h16.92v-22.52l19.35,22.52h21.42l-17.05-19.8c-3.21-3.73-7.89-5.88-12.82-5.88"/>
      <path class="cls-1" d="M857.64,521.49h16.94v6.18c3.99-4.88,9.07-7.47,15.85-7.47,12.36,0,19.84,8.47,19.84,21.83v34.29h-16.95v-30.5c0-5.98-1.79-9.47-8.67-9.47s-10.07,3.29-10.07,10.86v29.11h-16.94v-54.82Z"/>
      <path class="cls-1" d="M972.16,548.9c0,16.55-12.66,28.71-28.71,28.71s-28.71-12.26-28.71-28.71,12.86-28.71,28.71-28.71,28.71,12.16,28.71,28.71M931.89,548.9c0,7.68,5.08,12.56,11.56,12.56s11.56-4.88,11.56-12.56-4.98-12.56-11.56-12.56-11.56,4.98-11.56,12.56"/>
      <path class="cls-1" d="M975.23,548.9c0-16.25,11.96-28.71,28.81-28.71,13.66,0,25.92,8.27,27.61,22.92h-17.44c-1.3-5.28-5.68-7.28-10.17-7.28-7.48,0-11.66,5.38-11.66,13.06s4.49,13.06,11.56,13.06c4.59,0,8.97-2.19,10.27-7.38h17.44c-1.79,15.15-14.35,23.03-27.71,23.03-16.75,0-28.71-12.46-28.71-28.71"/>
      <path class="cls-1" d="M1122.21,521.48l-10.07,35.79-10.07-35.79h-4.08l-6.8,7.58c-2.11,2.36-2.81,5.67-1.82,8.67l12.69,38.57h20.14l18.04-54.83h-18.04ZM1084.03,521.5h.06s-.06-.01-.06-.01h0Z"/>
      <path class="cls-1" d="M1162.91,505.24c0,5.68-4.29,9.77-10.27,9.77s-10.27-4.09-10.27-9.77,4.49-9.67,10.27-9.67,10.27,4.09,10.27,9.67M1144.17,521.49h16.94v54.82h-16.94v-54.82Z"/>
      <path class="cls-1" d="M1165.54,548.9c0-17.05,10.96-28.71,24.62-28.71,6.98,0,12.16,2.99,15.65,7.47v-6.18h16.95l-.1,54.82h-16.94v-5.88c-3.49,4.29-8.47,7.18-15.45,7.18-13.95,0-24.72-11.76-24.72-28.71M1205.8,548.9c0-7.58-4.98-12.56-11.56-12.56s-11.56,4.98-11.56,12.56,5.08,12.56,11.56,12.56,11.56-4.88,11.56-12.56"/>
    </g>
  </g>
</svg>