<?xml version="1.0" encoding="UTF-8"?>
<svg id="Layer_2" data-name="Layer 2" xmlns="http://www.w3.org/2000/svg" viewBox="0 0 1351.22 230">
  <g id="Layer_1-2" data-name="Layer 1">
    <g>
      <path d="M130.64,104.17h10.83c51.55,0,93.34-41.79,93.34-93.34,0-5.98-4.85-10.83-10.83-10.83h-82.51c-5.98,0-10.83,4.85-10.83,10.83v53.98c0,5.98-4.85,10.83-10.83,10.83h-4.81c-5.98,0-10.83-4.85-10.83-10.83V10.83c0-5.98-4.85-10.83-10.83-10.83H10.83C4.85,0,0,4.85,0,10.83v208.34c0,5.98,4.85,10.83,10.83,10.83h82.51c5.98,0,10.83-4.85,10.83-10.83v-53.98c0-5.98,4.85-10.83,10.83-10.83h4.81c5.98,0,10.83,4.85,10.83,10.83v53.98c0,5.98,4.85,10.83,10.83,10.83h82.51c5.98,0,10.83-4.85,10.83-10.83h0c0-51.55-41.79-93.34-93.34-93.34h-70.31c-5.98,0-10.83-4.85-10.83-10.83s4.85-10.83,10.83-10.83h59.48Z"/>
      <g>
        <path d="M1309.86,179.67c0-11.77,8.48-20.68,20.68-20.68s20.68,8.48,20.68,20.68-8.48,20.68-20.68,20.68-20.68-8.48-20.68-20.68M1347.88,179.67c0-10.02-7.1-17.6-17.34-17.6s-17.34,7.21-17.34,17.6,7.1,17.6,17.34,17.6,17.34-7.21,17.34-17.6M1321.26,179.56c0-5.94,3.92-10.02,9.54-10.02,4.99,0,8.48,3.08,9.01,7.9h-3.23c-.53-3.02-2.76-4.98-5.78-4.98-3.6,0-6.15,2.91-6.15,7.1s2.65,7.26,6.41,7.26c2.86,0,5.04-1.96,5.51-5.04h3.23c-.53,4.82-4.03,7.95-8.85,7.95-5.73,0-9.7-4.19-9.7-10.18"/>
        <path d="M359.76,139.99h-.49c-3.54,0-6.41-2.87-6.41-6.41s2.87-6.41,6.41-6.41c11.3,0,22.07-4.81,29.61-13.22l38.03-42.43h-50.34l-42.43,51.3V19.99h-39.77v180.34h39.77v-52.93l45.48,52.93h50.34l-40.08-46.53c-7.55-8.77-18.55-13.81-30.13-13.81"/>
        <path d="M918.71,139.99h-.49c-3.54,0-6.41-2.87-6.41-6.41s2.87-6.41,6.41-6.41c11.3,0,22.07-4.81,29.61-13.22l38.03-42.43h-50.34l-42.43,51.3V19.99h-39.77v180.34h39.77v-52.93l45.48,52.93h50.34l-40.08-46.53c-7.55-8.77-18.55-13.81-30.13-13.81"/>
        <path d="M435.04,71.5h39.82v14.52c9.37-11.48,21.32-17.57,37.25-17.57,29.05,0,46.62,19.91,46.62,51.3v80.58h-39.83v-71.68c0-14.05-4.21-22.26-20.38-22.26s-23.66,7.74-23.66,25.53v68.41h-39.82V71.5Z"/>
        <path d="M704.19,135.92c0,38.89-29.75,67.47-67.47,67.47s-67.47-28.81-67.47-67.47,30.22-67.47,67.47-67.47,67.47,28.58,67.47,67.47M609.54,135.92c0,18.04,11.95,29.51,27.17,29.51s27.17-11.48,27.17-29.51-11.71-29.52-27.17-29.52-27.17,11.71-27.17,29.52"/>
        <path d="M711.39,135.92c0-38.19,28.11-67.47,67.7-67.47,32.09,0,60.91,19.44,64.89,53.88h-40.99c-3.05-12.41-13.35-17.1-23.89-17.1-17.57,0-27.41,12.65-27.41,30.69s10.54,30.69,27.17,30.69c10.78,0,21.08-5.15,24.13-17.34h40.99c-4.22,35.61-33.73,54.12-65.12,54.12-39.36,0-67.47-29.28-67.47-67.47"/>
        <path d="M1056.82,71.49l-23.66,84.11-23.66-84.11h-9.58l-15.98,17.82c-4.97,5.54-6.6,13.31-4.27,20.39l29.83,90.65h47.33l42.4-128.86h-42.4ZM967.09,71.51l.13-.03h-.13v.03Z"/>
        <path d="M1152.48,33.31c0,13.35-10.07,22.96-24.13,22.96s-24.13-9.6-24.13-22.96,10.54-22.72,24.13-22.72,24.13,9.6,24.13,22.72M1108.44,71.5h39.82v128.84h-39.82V71.5Z"/>
        <path d="M1158.65,135.92c0-40.06,25.77-67.47,57.86-67.47,16.4,0,28.58,7.02,36.78,17.57v-14.52h39.83l-.24,128.84h-39.82v-13.82c-8.2,10.07-19.91,16.87-36.31,16.87-32.8,0-58.1-27.64-58.1-67.47M1253.29,135.92c0-17.8-11.71-29.52-27.17-29.52s-27.17,11.71-27.17,29.52,11.95,29.51,27.17,29.51,27.17-11.48,27.17-29.51"/>
      </g>
    </g>
  </g>
</svg>